<svg xmlns="http://www.w3.org/2000/svg" xmlns:xlink="http://www.w3.org/1999/xlink" width="150.425" height="92.071" viewBox="0 0 150.425 92.071">
  <defs>
    <clipPath id="clip-path">
      <rect id="Rectangle_39" data-name="Rectangle 39" width="150.425" height="92.071" fill="none"/>
    </clipPath>
  </defs>
  <g id="Group_10" data-name="Group 10" transform="translate(150.425 92.071) rotate(180)">
    <g id="Group_5" data-name="Group 5" transform="translate(0 0)" clip-path="url(#clip-path)">
      <path id="Path_46" data-name="Path 46" d="M113.036.235c-.411-.024-.729-.057-1.047-.059-2.369-.016-4.736-.036-7.1-.038q-8.62-.009-17.239,0Q77.538.147,67.43.17a3.343,3.343,0,0,0-2.041.656,15.635,15.635,0,0,1-5.156,2.537,12.38,12.38,0,0,1-8.1-.573A18.418,18.418,0,0,1,47.9.336a1.284,1.284,0,0,0-.8-.288c-.352,0-.7-.014-1.053-.016C44.193.02,42.338,0,40.481,0c-3.274.008-6.549.038-9.823.047Q15.793.086.923.118A2.114,2.114,0,0,0,0,.217c.069.111.122.213.188.3C1.47,2.28,2.77,4.026,4.026,5.8a1.805,1.805,0,0,0,1.632.806q7.1-.015,14.211,0,17.019,0,34.038-.008,13.07,0,26.14-.016t26.138-.045a4.516,4.516,0,0,0,1.081-.132,1.955,1.955,0,0,0,.946-.682L112.829.5c.057-.063.1-.134.207-.269" transform="translate(18.071 15.398)" fill="#fff"/>
      <path id="Path_47" data-name="Path 47" d="M80.728,5.086c.283.324.547.656.842.956a6.218,6.218,0,0,0,.8.68,1.626,1.626,0,0,0,.99.3c.35-.006.7.006,1.051,0a.853.853,0,0,0,.776-.486,4.8,4.8,0,0,0,.3-.676q.99-2.785,1.966-5.571c.024-.069.043-.138.063-.207C87.183-.007.567-.033,0,.052.14.8.271,1.544.419,2.286.668,3.545.925,4.8,1.183,6.06a1.119,1.119,0,0,0,1.233.988l73.255-.024c.686,0,1.373.008,2.059,0a2.972,2.972,0,0,0,2.9-1.816.812.812,0,0,1,.1-.119" transform="translate(37.49 23.308)" fill="#fff"/>
      <path id="Path_48" data-name="Path 48" d="M66.57,0H.1C0,.312-.037,5.275.048,6.121l.028.026c.012.01.022.026.032.028.115.01.233.026.348.026,4.706,0,9.412,0,14.2,0-.484-1.278-1.039-2.468-1.523-3.732.848,0,1.648-.016,2.448.008a.934.934,0,0,1,.794.672c.318.719.607,1.452.907,2.179.057.136.1.277.158.407a.815.815,0,0,0,.717.5q.219.012.437.012,15.33,0,30.658,0c2.5,0,5-.02,7.5-.02A2.276,2.276,0,0,0,57.8,5.974a.914.914,0,0,1,.755-.057,10.948,10.948,0,0,0,3.987.348c.247-.008.5-.028.743-.038a1,1,0,0,0,.964-.632q1.16-2.719,2.3-5.439A.578.578,0,0,0,66.57,0" transform="translate(39.026 31.383)" fill="#fff"/>
      <path id="Path_49" data-name="Path 49" d="M0,2.246l1.053.19C1,2.787.978,3.1.915,3.414A2.419,2.419,0,0,0,1,4.621a14.4,14.4,0,0,0,1.1,2.43,30.443,30.443,0,0,1,1.683,3.41.674.674,0,0,0,.547.456,1.327,1.327,0,0,0,1.608-.792C6.634,8.41,7.359,6.7,8.1,5.008A3.179,3.179,0,0,0,8.288,3c-.034-.168-.045-.342-.065-.5a1.187,1.187,0,0,1,1.652.439,4.8,4.8,0,0,1,.288.589Q11.354,6.2,12.545,8.882a1.062,1.062,0,0,0,.121.154c.522-.828,1.029-1.634,1.569-2.493.073.164.126.273.168.385.077.2.154.411.223.618a1.057,1.057,0,0,0,1.1.759c.318,0,.638,0,.99,0v2.383c.36.1,10.05.14,11.16.051V8.323h1.946c.105-.344.144-7.515.051-8.31-.176,0-.36-.01-.545-.01Q18.671,0,8.015,0C6.13,0,4.244,0,2.357,0c-.362,0-.727.043-1.091.065a.942.942,0,0,0-.9.707c-.144.47-.237.956-.362,1.47" transform="translate(63.341 48.061)" fill="#fff"/>
      <path id="Path_50" data-name="Path 50" d="M.089,8.339H28.431L31.126,0H0C.128,1.4.338,2.776.354,4.151S.188,6.911.089,8.339" transform="translate(64.678 38.659)" fill="#fff"/>
      <path id="Path_51" data-name="Path 51" d="M43.828,5.7c-.486-.988-.948-1.9-1.379-2.817A10.753,10.753,0,0,1,41.54,0H.006A11.94,11.94,0,0,1,0,5.546a3.476,3.476,0,0,0,.348.034c.51,0,1.023,0,1.533,0q7.7.012,15.392.026c2.454.006,4.909.03,7.363.038q6.008.015,12.014.024c2.221,0,4.443.016,6.664.024h.514" transform="translate(21.037 8.355)" fill="#fff"/>
      <path id="Path_52" data-name="Path 52" d="M42.836,5.732a17.994,17.994,0,0,1,0-5.68C42.314.034,41.826,0,41.338,0Q33.313,0,25.286,0,17.874,0,10.463,0C7.116.007,3.768.026.421.038H0c.081.176.136.3.2.425A13.616,13.616,0,0,1,1.577,4.641c.034.231.047.464.071.7.012.128.032.253.051.395Z" transform="translate(19.411 0.228)" fill="#fff"/>
      <path id="Path_53" data-name="Path 53" d="M0,5.83H.557c3.406,0,6.812.006,10.22,0,3.157-.006,6.316-.024,9.473-.038,1.14,0,2.28-.028,3.42-.022,1.606.01,3.212.053,4.819.059,1.417.006,2.835-.034,4.252-.032,1.812,0,3.625.024,5.437.036.087,0,.174,0,.261,0a.853.853,0,0,0,.921-.711c.166-.573.3-1.158.454-1.735.263-.97.533-1.94.8-2.912.036-.136.063-.275.105-.47H.02A14.425,14.425,0,0,1,0,5.83" transform="translate(88.291 0.019)" fill="#fff"/>
      <path id="Path_54" data-name="Path 54" d="M41.052,5.589A14.4,14.4,0,0,1,41.04.105C41,.067,41,.055,40.985.047S40.963.02,40.951.018A1.915,1.915,0,0,0,40.734,0Q21.5,0,2.274,0A.728.728,0,0,0,2.11.051,13.493,13.493,0,0,1,0,5.552a.3.3,0,0,0,.024.075.053.053,0,0,0,.036.018c.994.008,1.986.02,2.981.018,12.64-.024,25.28-.049,38.011-.075" transform="translate(85.569 8.386)" fill="#fff"/>
      <path id="Path_55" data-name="Path 55" d="M77.4,75.474a1.088,1.088,0,0,0-1.237-1.154c-1.535.012-3.072.03-4.607-.01-1.268-.034-2.537-.128-3.8-.231-1.249-.1-2.5-.213-3.744-.389-1.486-.211-2.965-.478-4.441-.755a63.275,63.275,0,0,1-8.612-2.294,65.618,65.618,0,0,1-11.607-5.184,71.1,71.1,0,0,1-6.668-4.451,81.1,81.1,0,0,1-8.092-6.778A71.149,71.149,0,0,1,10.451,35.443,75.09,75.09,0,0,1,3.933,17.33,85.144,85.144,0,0,1,2.43,8.8c-.288-2.389-.533-4.785-.8-7.179C1.576,1.085,1.521.551,1.464,0H0C0,.286,0,.545,0,.8c.026.934.043,1.869.089,2.8C.2,5.763.383,7.914.656,10.058a76.614,76.614,0,0,0,2.93,13.318A81.73,81.73,0,0,0,8.11,34.659a94.07,94.07,0,0,0,7.5,12.694,34.525,34.525,0,0,0,2.276,2.776,77.422,77.422,0,0,0,8.906,8.742,71.645,71.645,0,0,0,14.284,9.3A73.673,73.673,0,0,0,55.8,73.531c2.082.518,4.178.964,6.3,1.282,1.284.194,2.576.33,3.868.472a72.133,72.133,0,0,0,8.973.34c.715-.01,1.43-.055,2.144-.089a2.587,2.587,0,0,0,.316-.061" transform="translate(0 0.288)" fill="#fff"/>
      <path id="Path_56" data-name="Path 56" d="M0,72.238c.051.4.1.767.152,1.191.441-.083.853-.152,1.262-.239A64.667,64.667,0,0,0,17.23,67.7,69.315,69.315,0,0,0,28.558,60.41a73.968,73.968,0,0,0,9.965-9.339,67.7,67.7,0,0,0,9.116-13.2,71.641,71.641,0,0,0,5.929-15.218,66.288,66.288,0,0,0,1.658-8.543,61.569,61.569,0,0,0,.531-6.543c.034-1.693.043-3.388.036-5.081,0-.8-.065-1.6-.1-2.4a1.578,1.578,0,0,0-1.126.02c0,.324-.006.654,0,.984q.085,3.463-.124,6.917a72.4,72.4,0,0,1-.832,7.48,67.839,67.839,0,0,1-4.516,15.6A71.2,71.2,0,0,1,38.987,47.839a81.117,81.117,0,0,1-5.955,6.66,63.868,63.868,0,0,1-17.21,12.3A68.86,68.86,0,0,1,3.451,71.367c-1.126.3-2.258.571-3.451.871" transform="translate(94.627 -0.001)" fill="#fff"/>
      <path id="Path_57" data-name="Path 57" d="M1.124.033c0,.364-.014.711,0,1.055A10.3,10.3,0,0,1,.877,4.521C.7,5.118.445,5.693.227,6.28A4.007,4.007,0,0,0,.018,6.9a.7.7,0,0,0,.263.737,2.634,2.634,0,0,1,.962,2.076c.016.494,0,.988,0,1.482,0,.247,0,.494,0,.713l.069.061c.01.008.02.024.032.026a1.3,1.3,0,0,0,.215.026q5.3,0,10.607,0a.843.843,0,0,0,.184-.059,13.272,13.272,0,0,0-.02-1.628,2.733,2.733,0,0,1,.83-2.466,1.094,1.094,0,0,0,.213-1.492,9.316,9.316,0,0,1-1.085-4.85c.012-.364.041-.729.02-1.089C12.281.023,12.247,0,11.862,0Q6.668,0,1.474,0c-.1,0-.2.018-.35.032" transform="translate(78.944 59.847)" fill="#fff"/>
      <path id="Path_58" data-name="Path 58" d="M7.144,14.637c.105-.207.213-.411.314-.62Q10.574,7.6,13.688,1.186a2.427,2.427,0,0,0,.178-.492.466.466,0,0,0-.354-.605A2.683,2.683,0,0,0,12.864,0Q6.968,0,1.071,0A3.066,3.066,0,0,0,.419.078a.47.47,0,0,0-.391.65,2.646,2.646,0,0,0,.194.486q3.25,6.5,6.5,12.994a4.575,4.575,0,0,0,.3.454l.122-.024" transform="translate(78.8 72.785)" fill="#fff"/>
      <path id="Path_59" data-name="Path 59" d="M12.63,0H0A2.459,2.459,0,0,0,.117.288Q2.344,4.03,4.572,7.772a1.061,1.061,0,0,0,.85.541c.506.053,1.017.1,1.527.105A2.293,2.293,0,0,0,9,7.288a2.9,2.9,0,0,0,.269-.5A46.4,46.4,0,0,1,11.712,1.9c.284-.526.537-1.069.8-1.6.038-.077.063-.158.117-.3" transform="translate(39.033 38.649)" fill="#fff"/>
      <path id="Path_60" data-name="Path 60" d="M6.254,0H.955c0,.417.016.822,0,1.225S.882,2.007.832,2.4a1.208,1.208,0,0,1-.362.682A1.412,1.412,0,0,0,.184,4.84C.463,5.5.7,6.17.961,6.832c.091.231.194.456.3.68A1.636,1.636,0,0,0,2.933,8.543c.583-.028,1.164-.089,1.741-.168a1.009,1.009,0,0,0,.715-.537c.132-.225.247-.462.365-.7.354-.7.709-1.405,1.055-2.112a4.735,4.735,0,0,0,.233-.565A1.3,1.3,0,0,0,6.7,2.981a1.357,1.357,0,0,1-.439-1.091c-.006-.482,0-.962,0-1.444V0" transform="translate(97.001 38.681)" fill="#fff"/>
      <path id="Path_61" data-name="Path 61" d="M8.967,0H0C.156.466.294.891.439,1.314.936,2.76,1.448,4.2,1.926,5.658a.779.779,0,0,0,.8.6q1.774.021,3.55,0a.738.738,0,0,0,.763-.531C7.662,3.89,8.3,2.057,8.934.225A1.55,1.55,0,0,0,8.967,0" transform="translate(107.277 31.343)" fill="#fff"/>
      <path id="Path_62" data-name="Path 62" d="M9.039,0H0A1.9,1.9,0,0,0,.29.877c.622,1.14,1.251,2.276,1.871,3.416.294.537.591,1.073.85,1.628a1.263,1.263,0,0,0,1.371.786,10.254,10.254,0,0,1,1.087,0,.749.749,0,0,0,.678-.324,3.03,3.03,0,0,0,.277-.494Q7.677,3.113,8.918.34c.041-.089.067-.186.121-.34" transform="translate(23.862 23.535)" fill="#fff"/>
      <path id="Path_63" data-name="Path 63" d="M4.959,0H0Q1.23,3.681,2.422,7.255c.3.063.312-.13.358-.273.2-.638.4-1.28.605-1.918Q4.121,2.726,4.856.389c.034-.107.059-.221.1-.389" transform="translate(56.993 38.619)" fill="#fff"/>
      <path id="Path_64" data-name="Path 64" d="M2.337,5.133C2.9,3.428,3.459,1.733,4.03,0H0C.026.1.043.192.077.281q.9,2.272,1.8,4.544c.075.19.119.413.46.308" transform="translate(109.851 38.687)" fill="#fff"/>
      <path id="Path_65" data-name="Path 65" d="M4.424,0c-.375.063-.731.117-1.085.18C2.348.358,1.358.533.37.721.2.753-.084.729.024,1.1c1.444.387,2.9.78,4.4,1.183Z" transform="translate(95.786 54.274)" fill="#fff"/>
      <path id="Path_66" data-name="Path 66" d="M.013.84c-.063.3.124.31.273.35q1.494.4,2.991.8l1.17.312V0Q2.2.428.013.84" transform="translate(107.538 46.933)" fill="#fff"/>
      <path id="Path_67" data-name="Path 67" d="M4.473,0C3.035.267,1.65.529.263.784.107.812-.023.844,0,1.091c1.472.395,2.952.792,4.469,1.2Z" transform="translate(41.377 53.138)" fill="#fff"/>
      <path id="Path_68" data-name="Path 68" d="M.023.816c-.079.269.063.3.215.336.79.207,1.577.419,2.365.63.585.156,1.17.316,1.8.484V0L.023.816" transform="translate(24.042 36.292)" fill="#fff"/>
      <path id="Path_69" data-name="Path 69" d="M4.354,2.193V.018A1.056,1.056,0,0,0,4.117,0Q2.2.347.294.7A.135.135,0,0,0,.252.7C.167.765.037.816.009.9c-.043.136.077.2.2.225.156.036.31.081.464.121q1.665.45,3.329.9a3.368,3.368,0,0,0,.348.055" transform="translate(81.411 89.879)" fill="#fff"/>
      <path id="Path_70" data-name="Path 70" d="M0,0C.456,1.255.9,2.475,1.341,3.692c.032,0,.065,0,.1,0,.5-1.215.99-2.43,1.5-3.689Z" transform="translate(98.881 48.126)" fill="#fff"/>
      <path id="Path_71" data-name="Path 71" d="M4.449,0C3,.267,1.588.526.176.79A.71.71,0,0,0,0,.885c.006.253.2.249.34.288.786.213,1.573.417,2.359.626.492.13.982.263,1.474.393.079.02.166.024.275.041Z" transform="translate(63.442 64.305)" fill="#fff"/>
      <path id="Path_72" data-name="Path 72" d="M1.3,2.58C1.735,1.689,2.118.9,2.5.1A10.239,10.239,0,0,0,0,.05C.391.889.842,1.674,1.3,2.58" transform="translate(44.557 48.177)" fill="#fff"/>
      <path id="Path_73" data-name="Path 73" d="M1.11,2.6c.322-.855.646-1.711.98-2.6H0C.342.887.674,1.748,1.006,2.61l.1-.012" transform="translate(120.2 31.406)" fill="#fff"/>
      <path id="Path_74" data-name="Path 74" d="M1.093,1.873,1.776,0H0C.35.66.674,1.27,1,1.879l.1-.006" transform="translate(27.655 31.677)" fill="#fff"/>
    </g>
  </g>
</svg>
